<svg data-v-6805eed4="" version="1.0" xmlns="http://www.w3.org/2000/svg" xmlns:xlink="http://www.w3.org/1999/xlink" width="100%" height="100%" viewBox="0 0 340.000000 250.000000" preserveAspectRatio="xMidYMid meet" color-interpolation-filters="sRGB" style="margin: auto;"> <rect data-v-6805eed4="" x="0" y="0" width="100%" height="100%" fill="#ef9898" fill-opacity="0" class="background"></rect> <!----> <g data-v-6805eed4="" class="iconmbgsvg" transform="translate(95,50)"><g fill="#fff" hollow-target="text"><g mask="url(#69abd35e-49d8-47c9-80df-eb698eafa5a1)"><g><rect fill="#fff" fill-opacity="0" stroke-width="2" x="0" y="0" width="150" height="150" class="image-rect"></rect> <svg filter="url(#colors9338751537)" x="0" y="0" width="150" height="150" filtersec="colorsf4677551007" class="image-svg-svg primary" style="overflow: visible;"><svg fill="#000000" xmlns="http://www.w3.org/2000/svg" xmlns:xlink="http://www.w3.org/1999/xlink" version="1.1" x="0px" y="0px" viewBox="10.125001907348633 10.010000228881836 80 79.99999237060547" style="enable-background:new 0 0 100 100;" xml:space="preserve"><path d="M64.009,10.01H36.241c-14.4,0-26.116,11.716-26.116,26.116v27.768c0,14.4,11.716,26.116,26.116,26.116h27.768  c14.4,0,26.116-11.716,26.116-26.116V36.126C90.125,21.726,78.409,10.01,64.009,10.01z M88.125,63.894  c0,13.298-10.818,24.116-24.116,24.116H36.241c-13.298,0-24.116-10.818-24.116-24.116V36.126c0-13.298,10.818-24.116,24.116-24.116  h27.768c13.298,0,24.116,10.818,24.116,24.116V63.894z"></path></svg></svg> <defs><filter id="colors9338751537"><feColorMatrix type="matrix" values="0 0 0 0 0.99609375  0 0 0 0 0.99609375  0 0 0 0 0.99609375  0 0 0 1 0" class="icon-fecolormatrix"></feColorMatrix></filter> <filter id="colorsf4677551007"><feColorMatrix type="matrix" values="0 0 0 0 0.99609375  0 0 0 0 0.99609375  0 0 0 0 0.99609375  0 0 0 1 0" class="icon-fecolormatrix"></feColorMatrix></filter> <filter id="colorsb5950312619"><feColorMatrix type="matrix" values="0 0 0 0 0  0 0 0 0 0  0 0 0 0 0  0 0 0 1 0" class="icon-fecolormatrix"></feColorMatrix></filter></defs></g></g> <g transform="translate(20.55999755859375,14.650863647460938)"><g data-gra="path-name" fill-rule="" class="tp-name" transform="translate(0,0)"><g transform="scale(1)"><g><path d="M38.35-27.78L38.35-27.78Q45-22.57 54.94-19.73L54.94-19.73Q53.19-18.06 52.44-16.14L52.44-16.14Q42.75-20.23 36.52-25.66L36.52-25.66Q28.36-18.37 16.75-14.03L16.75-14.03 16-15.28Q26.8-20.32 34.18-27.94L34.18-27.94Q30.95-31.34 28.25-35.88L28.25-35.88Q24.46-30.28 18.84-25.55L18.84-25.55 17.84-26.58Q25.86-34.93 30.09-47.26L30.09-47.26Q35.1-45.98 35.1-44.98L35.1-44.98Q35.1-44.31 32.7-43.78L32.7-43.78 31.67-41.72 31.39-41.22 42.61-41.22 44.67-44Q48.48-40.89 48.48-39.97L48.48-39.97Q48.48-39.63 47.93-39.41L47.93-39.41 46.34-38.77Q43-32.76 38.35-27.78ZM35.96-29.72L35.96-29.72Q40.27-34.57 42.86-39.8L42.86-39.8 30.64-39.8 30.42-39.47Q30.2-39.02 29.75-38.32L29.75-38.32Q29.31-37.57 29.17-37.35L29.17-37.35Q31.92-33.4 35.96-29.72ZM27.64-14.95L27.64-14.95 43.64-14.95 45.62-17.12Q49.18-14.44 49.18-13.92L49.18-13.92Q49.18-13.67 48.71-13.3L48.71-13.3 47.34-12.33 47.34 4.09 44.03 4.09 44.03 0.81 27.19 0.81 27.19 4.09 23.82 4.09 23.82-16.42Q26.22-15.64 27.64-14.95ZM44.03-13.53L27.19-13.53 27.19-0.61 44.03-0.61 44.03-13.53ZM2.95-32.79L3.65-33.73Q10.77-31.26 10.77-27.41L10.77-27.41Q10.77-25.24 8.93-25.24L8.93-25.24Q7.49-25.24 7.07-27.3L7.07-27.3Q6.46-30.23 2.95-32.79L2.95-32.79ZM6.54-45.03L7.24-46.06Q14.86-43.75 14.86-39.91L14.86-39.91Q14.86-37.74 12.91-37.74L12.91-37.74Q11.83-37.74 11.38-39.05L11.38-39.05Q10.3-42.5 6.54-45.03L6.54-45.03ZM19.09-36.38L20.4-35.35 11.33-11.05Q10.41-8.66 10.41-7.18L10.41-7.18Q10.41-6.48 10.74-5.01L10.74-5.01Q11.49-1.78 11.49 0.72L11.49 0.72Q11.49 3.98 8.88 3.98L8.88 3.98Q7.04 3.98 7.04 2.12L7.04 2.12Q7.04 2.06 7.51-1.89L7.51-1.89Q7.68-3.4 7.68-4.9L7.68-4.9Q7.68-7.93 6.54-9.24L6.54-9.24Q5.57-10.21 3.28-10.55L3.28-10.55 3.28-12.02Q4.65-11.8 5.62-11.8L5.62-11.8Q7.71-11.8 9.21-14.58L9.21-14.58Q14.14-23.55 19.09-36.38L19.09-36.38ZM84.83-13.39L84.83-13.39 102.53-13.39 104.54-15.56Q107.6-13.25 107.6-12.47L107.6-12.47Q107.6-12.08 107.21-11.86L107.21-11.86 106.01-11.05 106.01 0.97 107.77 0.97 109.6-2.84Q111.02-0.75 111.83 1.36L111.83 1.36 111.24 2.39 76.04 2.39 75.29 0.97 81.1 0.97 81.1-14.86Q83.08-14.17 84.83-13.39ZM88.48-11.97L84.14-11.97 84.14 0.97 88.48 0.97 88.48-11.97ZM95.55-11.97L91.37-11.97 91.37 0.97 95.55 0.97 95.55-11.97ZM102.92-11.97L98.5-11.97 98.5 0.97 102.92 0.97 102.92-11.97ZM93.01-26L93.01-26Q91.15-22.74 87.45-20.57L87.45-20.57 86.53-21.54Q91.15-25.58 91.82-31.81L91.82-31.81Q96.22-31.2 96.22-30.34L96.22-30.34Q96.22-29.78 94.46-29.36L94.46-29.36Q93.99-27.86 93.65-27.19L93.65-27.19Q99.42-25.58 99.42-23.07L99.42-23.07Q99.42-21.43 97.94-21.43L97.94-21.43Q96.99-21.43 96.58-22.29L96.58-22.29Q95.44-24.44 93.01-26ZM85.86-34.15L85.86-34.15 100.45-34.15 102.37-36.32Q105.57-33.82 105.57-33.12L105.57-33.12Q105.57-32.79 105.07-32.45L105.07-32.45 103.87-31.65 103.87-16.37 100.84-16.37 100.84-18.48 85.75-18.48 85.75-16.2 82.72-16.2 82.72-35.51Q84.53-34.87 85.86-34.15ZM100.84-32.73L85.75-32.73 85.75-19.9 100.84-19.9 100.84-32.73ZM64.99-18.26L64.99-18.26Q70.78-24.6 75.26-32.4L75.26-32.4Q79.38-30.59 79.38-29.47L79.38-29.47Q79.38-28.69 76.98-28.69L76.98-28.69Q72.25-22.77 67.1-18.31L67.1-18.31Q72.47-18.65 75.15-18.93L75.15-18.93Q74.42-20.4 73.09-22.13L73.09-22.13 74.01-22.93Q79.6-19.15 79.6-15.59L79.6-15.59Q79.6-13.53 77.71-13.53L77.71-13.53Q76.4-13.53 76.23-15.17L76.23-15.17Q76.15-16.42 75.73-17.51L75.73-17.51Q73.2-16.98 71.56-16.7L71.56-16.7 71.56 4.09 68.41 4.09 68.41-16.2Q65.38-15.67 62.37-15.34L62.37-15.34Q61.79-13.58 61.17-13.58L61.17-13.58Q60.28-13.58 59.34-18.09L59.34-18.09Q62.26-18.09 64.99-18.26ZM93.01-36.07L93.01-40.36 87.31-40.36 86.75-41.78 93.01-41.78 93.01-46.95Q98.22-46.95 98.22-45.81L98.22-45.81Q98.22-45.17 96.22-44.39L96.22-44.39 96.22-41.78 104.26-41.78 106.99-45.25Q109.05-43.45 110.58-41.55L110.58-41.55 110.02-40.36 96.22-40.36 96.22-36.07 93.01-36.07ZM74.23-36.07L74.23-40.36 61.17-40.36 60.62-41.78 74.23-41.78 74.23-46.95Q79.82-46.95 79.82-45.76L79.82-45.76Q79.82-45 77.43-44.23L77.43-44.23 77.43-41.78 79.49-41.78 81.99-45.03Q84.16-43.11 85.58-41.55L85.58-41.55 85-40.36 77.43-40.36 77.43-36.07 74.23-36.07ZM65.43-29.31L65.43-29.31Q67.33-32.62 68.86-37.38L68.86-37.38Q73.25-35.93 73.25-34.98L73.25-34.98Q73.25-34.34 71.14-34.09L71.14-34.09Q69.25-31.42 66.41-28.44L66.41-28.44Q68.19-26.66 68.19-25.08L68.19-25.08Q68.19-23.02 66.49-23.02L66.49-23.02Q65.32-23.02 64.88-24.49L64.88-24.49Q63.93-27.67 60.42-30.84L60.42-30.84 61.23-31.76Q63.68-30.7 65.43-29.31ZM60.37 1.84L60.37 1.84 59.23 1.09Q61.87-4.56 62.82-12.41L62.82-12.41Q67.44-11.41 67.44-10.38L67.44-10.38Q67.44-9.77 65.49-9.35L65.49-9.35Q64.01-3.2 60.37 1.84ZM76.9-1.75L76.9-1.75Q75.4-1.75 75.4-4.09L75.4-4.09Q75.4-7.82 73.25-12.94L73.25-12.94 74.34-13.44Q78.76-8.49 78.76-4.37L78.76-4.37Q78.76-1.75 76.9-1.75Z" transform="translate(-2.950000047683716, 47.2599983215332)"></path></g> <!----> <!----> <!----> <!----> <!----> <!----> <g data-gra="path-name-1" fill="#fff" transform="translate(0,54.349998474121094)"><g transform="scale(1.00304)"><path d="M23.38-26.44L23.38-26.44 31.42-26.44 33.29-28.69Q36.4-26.22 36.4-25.52L36.4-25.52Q36.4-25.27 36.07-25.02L36.07-25.02 34.76-24.1 34.76-14.75 31.81-14.75 31.81-16.64 23.16-16.64 23.16-14.47 20.01-14.47 20.01-28.05Q21.4-27.53 23.38-26.44ZM31.81-25.02L23.16-25.02 23.16-18.06 31.81-18.06 31.81-25.02ZM8.71 4.09L8.71-21.54Q6.37-13.53 2.67-7.18L2.67-7.18 1.36-8.04Q6.57-18.54 8.54-32.4L8.54-32.4 8.66-33.01 2.67-33.01 2.23-34.43 8.71-34.43 8.71-47.04Q14.31-46.84 14.31-45.48L14.31-45.48Q14.31-44.73 11.8-43.95L11.8-43.95 11.8-34.43 13.64-34.43 15.92-37.63 16.37-37.1Q18.06-35.4 18.93-33.98L18.93-33.98 18.31-33.01 11.8-33.01 11.8-26.91 12.08-26.69Q18.29-21.99 18.29-18.15L18.29-18.15Q18.29-16.03 16.34-16.03L16.34-16.03Q15.31-16.03 15.06-17.45L15.06-17.45Q14.28-21.18 11.8-24.85L11.8-24.85 11.8 4.09 8.71 4.09ZM54.72-30.5L49.23-30.5 49.23-0.5Q49.23 2.5 46.2 3.37L46.2 3.37Q44.98 3.65 44.28 3.65L44.28 3.65Q44.2 2.06 42.44 1.31L42.44 1.31Q41.08 0.75 37.71 0.33L37.71 0.33 37.71-1.14Q40.83-0.81 43.53-0.81L43.53-0.81Q45.2-0.81 45.64-1.14L45.64-1.14Q46.03-1.53 46.03-2.56L46.03-2.56 46.03-30.5 38.74-30.5 38.05-31.92 45.87-31.92 45.87-46.17Q51.29-45.92 51.29-44.59L51.29-44.59Q51.29-43.84 49.07-42.97L49.07-42.97 49.07-31.92 50.65-31.92 52.66-35.74Q54.22-33.65 55.22-31.7L55.22-31.7 54.72-30.5ZM38.55-38.38L29.08-38.38 29.08-31.87 31.98-31.87 34.21-34.96Q34.57-34.62 34.68-34.54L34.68-34.54Q35.96-33.26 37.41-31.48L37.41-31.48 36.85-30.45 19.26-30.45 18.7-31.87 25.94-31.87 25.94-38.38 17.84-38.38 17.34-39.8 25.94-39.8 25.94-47.15Q31.31-46.9 31.31-45.73L31.31-45.73Q31.31-44.95 29.08-44.2L29.08-44.2 29.08-39.8 33.43-39.8 35.82-42.94Q37.35-41.72 39.1-39.52L39.1-39.52 38.55-38.38ZM28.17-4.17L28.17-4.17Q29.92-9.21 30.67-14.19L30.67-14.19Q35.4-12.91 35.4-11.8L35.4-11.8Q35.4-11.08 33.34-10.83L33.34-10.83Q32.26-8.1 30.09-4.62L30.09-4.62Q35.35-6.04 38.52-7.13L38.52-7.13 38.88-5.76Q29.59-1.7 19.84 0.86L19.84 0.86Q19.57 3.09 18.98 3.09L18.98 3.09Q17.9 3.09 16.17-1.75L16.17-1.75Q22.93-2.87 28.17-4.17ZM19.65-12.89L20.51-13.75Q25.69-10.08 25.69-6.21L25.69-6.21Q25.69-3.92 23.77-3.92L23.77-3.92Q22.35-3.92 22.27-6.04L22.27-6.04Q22.18-9.41 19.65-12.89L19.65-12.89ZM37.74-26.33L38.88-26.86Q43.67-19.93 43.67-14.31L43.67-14.31Q43.67-11.22 41.66-11.22L41.66-11.22Q40.19-11.22 40.19-14L40.19-14Q40.19-20.23 37.74-26.33L37.74-26.33ZM80.88-43.14L80.88-43.14 104.09-43.14 106.37-45.87Q109.91-43.03 109.91-42.33L109.91-42.33Q109.91-42.08 109.44-41.72L109.44-41.72 107.96-40.69 107.96-1.78Q107.96 3.26 102.03 3.34L102.03 3.34Q101.95 1.7 100.25 1L100.25 1Q98.69 0.36 94.43-0.31L94.43-0.31 94.43-1.89Q98.97-1.39 102.48-1.39L102.48-1.39Q104.65-1.39 104.65-3.2L104.65-3.2 104.65-41.72 80.13-41.72 80.13 4.09 76.76 4.09 76.76-45.03Q78.65-44.34 80.88-43.14ZM88.53-25.61L88.53-25.61 95.52-25.61 97.5-28Q100.81-25.38 100.81-24.69L100.81-24.69Q100.81-24.3 100.25-23.91L100.25-23.91 99.05-23.1 99.05-7.24 95.96-7.24 95.96-10.99 87.84-10.99 87.84-6.9 84.75-6.9 84.75-27.19Q85.28-27.02 86.11-26.69L86.11-26.69Q86.31-26.61 86.81-26.38L86.81-26.38Q87.87-25.91 88.53-25.61ZM95.96-24.19L87.84-24.19 87.84-12.41 95.96-12.41 95.96-24.19ZM59.67-32.79L60.37-33.73Q67.55-31.34 67.55-27.41L67.55-27.41Q67.55-25.19 65.71-25.19L65.71-25.19Q64.29-25.19 63.79-27.25L63.79-27.25Q63.07-30.31 59.67-32.79L59.67-32.79ZM63.21-44.98L63.9-46.01Q71.64-43.61 71.64-39.8L71.64-39.8Q71.64-37.63 69.58-37.63L69.58-37.63Q68.47-37.63 68.05-38.88L68.05-38.88Q66.91-42.36 63.21-44.98L63.21-44.98ZM82.08-34.09L95.74-34.09 98.5-37.46Q100.78-35.51 102.09-33.82L102.09-33.82 101.45-32.67 82.63-32.67 82.08-34.09ZM73.92-37.46L75.34-36.49 68.1-11.05 67.94-10.6Q67.13-8.38 67.13-7.13L67.13-7.13Q67.13-6.57 67.41-5.12L67.41-5.12Q68.33-1.73 68.33 0.17L68.33 0.17Q68.33 3.98 65.66 3.98L65.66 3.98Q63.71 3.98 63.71 2.03L63.71 2.03Q63.71 1.61 64.13-1.67L64.13-1.67Q64.29-3.15 64.29-4.68L64.29-4.68Q64.29-9.85 60.01-10.55L60.01-10.55 60.01-12.02Q61.09-11.8 62.01-11.8L62.01-11.8Q64.63-11.8 65.82-14.53L65.82-14.53Q69.86-23.96 73.92-37.46L73.92-37.46Z" transform="translate(-1.3600000143051147, 47.150001525878906)"></path></g></g></g></g> <g data-gra="path-slogan" fill-rule="" class="tp-slogan" fill="#fff" transform="translate(-5.229999542236328,110.74576568603516)"><rect width="0"></rect> <rect x="122.34000396728516" width="0"></rect> <g transform="translate(0,0)"><g transform="scale(1)"><path d="M0.89-8.58L2.06-8.58L2.06-1.03L6.42-1.03L6.42 0L0.89 0L0.89-8.58ZM13.22-3.19L13.22-8.58L14.39-8.58L14.39-3.05Q14.25 0.05 10.88 0.14L10.88 0.14Q7.73 0.05 7.59-2.86L7.59-2.86L7.59-8.58L8.77-8.58L8.77-3.19Q8.81-0.84 10.92-0.80L10.92-0.80Q13.22-0.84 13.22-3.19L13.22-3.19ZM22.97-4.27L22.97-4.27Q22.78-7.64 19.97-7.83L19.97-7.83Q17.11-7.69 16.97-4.27L16.97-4.27Q17.11-0.94 19.97-0.80L19.97-0.80Q22.78-0.98 22.97-4.27ZM24.14-4.27L24.14-4.27Q23.86 0 19.97 0.14L19.97 0.14Q16.03 0 15.75-4.27L15.75-4.27Q15.98-8.72 19.97-8.81L19.97-8.81Q23.86-8.67 24.14-4.27ZM32.44-8.58L29.20-3.47L29.20 0L28.03 0L28.03-3.47L24.80-8.58L26.16-8.58L28.59-4.45L31.08-8.58L32.44-8.58ZM39.14-3.19L39.14-8.58L40.31-8.58L40.31-3.05Q40.17 0.05 36.80 0.14L36.80 0.14Q33.66 0.05 33.52-2.86L33.52-2.86L33.52-8.58L34.69-8.58L34.69-3.19Q34.73-0.84 36.84-0.80L36.84-0.80Q39.14-0.84 39.14-3.19L39.14-3.19ZM43.50-8.58L47.81-1.64L47.81-8.58L48.94-8.58L48.94 0L47.63 0L43.27-6.94L43.22-6.94L43.22 0L42.09 0L42.09-8.58L43.50-8.58ZM56.25-7.59L53.34-7.59L53.34-8.58L60.28-8.58L60.28-7.59L57.38-7.59L57.38 0L56.25 0L56.25-7.59ZM65.44-3.70L62.63-3.70L62.63 0L61.45 0L61.45-8.58L65.44-8.58Q68.30-8.58 68.30-6.28L68.30-6.28Q68.30-4.88 67.08-4.22L67.08-4.22Q68.11-3.94 68.11-2.58L68.11-2.58L68.20-1.03Q68.16-0.38 68.63-0.19L68.63-0.19L68.63 0L67.17 0Q67.03-0.61 66.98-2.16L66.98-2.16Q67.03-3.70 65.44-3.70L65.44-3.70ZM65.53-7.64L62.63-7.64L62.63-4.69L65.34-4.69Q67.08-4.69 67.08-6.19L67.08-6.19Q67.08-7.64 65.53-7.64L65.53-7.64ZM71.25-1.03L76.41-1.03L76.41 0L70.08 0L70.08-8.58L76.31-8.58L76.31-7.59L71.25-7.59L71.25-4.92L75.94-4.92L75.94-3.89L71.25-3.89L71.25-1.03ZM79.22-1.03L84.38-1.03L84.38 0L78.05 0L78.05-8.58L84.28-8.58L84.28-7.59L79.22-7.59L79.22-4.92L83.91-4.92L83.91-3.89L79.22-3.89L79.22-1.03ZM96.38-6.05L96.38-6.05L95.25-6.05Q94.83-7.78 92.86-7.83L92.86-7.83Q90.14-7.69 90.05-4.36L90.05-4.36Q90.05-0.80 92.91-0.80L92.91-0.80Q94.88-0.84 95.34-3.19L95.34-3.19L96.47-3.19Q95.95 0.05 92.67 0.14L92.67 0.14Q88.92 0 88.83-4.31L88.83-4.31Q89.02-8.63 92.86-8.81L92.86-8.81Q95.91-8.72 96.38-6.05ZM103.50 0L102.66-2.48L99.19-2.48L98.30 0L97.13 0L100.36-8.58L101.67-8.58L104.77 0L103.50 0ZM100.92-7.31L99.56-3.52L102.23-3.52L100.97-7.31L100.92-7.31ZM106.45-8.58L108.89-1.27L111.38-8.58L112.69-8.58L109.55 0L108.28 0L105.14-8.58L106.45-8.58ZM115.08-1.03L120.23-1.03L120.23 0L113.91 0L113.91-8.58L120.14-8.58L120.14-7.59L115.08-7.59L115.08-4.92L119.77-4.92L119.77-3.89L115.08-3.89L115.08-1.03Z" transform="translate(-0.890625, 8.8125)"></path></g></g></g></g></g></g><mask id="69abd35e-49d8-47c9-80df-eb698eafa5a1"><g fill="white"><g><rect fill-opacity="1" stroke-width="2" x="0" y="0" width="150" height="150" class="image-rect"></rect> <svg x="0" y="0" width="150" height="150" class="image-svg-svg primary" style="overflow: visible;" filter="url(#colorsf4677551007)"><svg xmlns="http://www.w3.org/2000/svg" xmlns:xlink="http://www.w3.org/1999/xlink" version="1.1" x="0px" y="0px" viewBox="10.125001907348633 10.010000228881836 80 79.99999237060547" style="enable-background:new 0 0 100 100;" xml:space="preserve"><path d="M64.009,10.01H36.241c-14.4,0-26.116,11.716-26.116,26.116v27.768c0,14.4,11.716,26.116,26.116,26.116h27.768  c14.4,0,26.116-11.716,26.116-26.116V36.126C90.125,21.726,78.409,10.01,64.009,10.01z M88.125,63.894  c0,13.298-10.818,24.116-24.116,24.116H36.241c-13.298,0-24.116-10.818-24.116-24.116V36.126c0-13.298,10.818-24.116,24.116-24.116  h27.768c13.298,0,24.116,10.818,24.116,24.116V63.894z"></path></svg></svg> <defs>  </defs></g></g> <g transform="translate(20.55999755859375,14.650863647460938)" fill="black" stroke="black" stroke-width="6" stroke-linejoin="round"><g data-gra="path-name" fill-rule="" class="tp-name" transform="translate(0,0)"><g transform="scale(1)"><g><path d="M38.35-27.78L38.35-27.78Q45-22.57 54.94-19.73L54.94-19.73Q53.19-18.06 52.44-16.14L52.44-16.14Q42.75-20.23 36.52-25.66L36.52-25.66Q28.36-18.37 16.75-14.03L16.75-14.03 16-15.28Q26.8-20.32 34.18-27.94L34.18-27.94Q30.95-31.34 28.25-35.88L28.25-35.88Q24.46-30.28 18.84-25.55L18.84-25.55 17.84-26.58Q25.86-34.93 30.09-47.26L30.09-47.26Q35.1-45.98 35.1-44.98L35.1-44.98Q35.1-44.31 32.7-43.78L32.7-43.78 31.67-41.72 31.39-41.22 42.61-41.22 44.67-44Q48.48-40.89 48.48-39.97L48.48-39.97Q48.48-39.63 47.93-39.41L47.93-39.41 46.34-38.77Q43-32.76 38.35-27.78ZM35.96-29.72L35.96-29.72Q40.27-34.57 42.86-39.8L42.86-39.8 30.64-39.8 30.42-39.47Q30.2-39.02 29.75-38.32L29.75-38.32Q29.31-37.57 29.17-37.35L29.17-37.35Q31.92-33.4 35.96-29.72ZM27.64-14.95L27.64-14.95 43.64-14.95 45.62-17.12Q49.18-14.44 49.18-13.92L49.18-13.92Q49.18-13.67 48.71-13.3L48.71-13.3 47.34-12.33 47.34 4.09 44.03 4.09 44.03 0.81 27.19 0.81 27.19 4.09 23.82 4.09 23.82-16.42Q26.22-15.64 27.64-14.95ZM44.03-13.53L27.19-13.53 27.19-0.61 44.03-0.61 44.03-13.53ZM2.95-32.79L3.65-33.73Q10.77-31.26 10.77-27.41L10.77-27.41Q10.77-25.24 8.93-25.24L8.93-25.24Q7.49-25.24 7.07-27.3L7.07-27.3Q6.46-30.23 2.95-32.79L2.95-32.79ZM6.54-45.03L7.24-46.06Q14.86-43.75 14.86-39.91L14.86-39.91Q14.86-37.74 12.91-37.74L12.91-37.74Q11.83-37.74 11.38-39.05L11.38-39.05Q10.3-42.5 6.54-45.03L6.54-45.03ZM19.09-36.38L20.4-35.35 11.33-11.05Q10.41-8.66 10.41-7.18L10.41-7.18Q10.41-6.48 10.74-5.01L10.74-5.01Q11.49-1.78 11.49 0.72L11.49 0.72Q11.49 3.98 8.88 3.98L8.88 3.98Q7.04 3.98 7.04 2.12L7.04 2.12Q7.04 2.06 7.51-1.89L7.51-1.89Q7.68-3.4 7.68-4.9L7.68-4.9Q7.68-7.93 6.54-9.24L6.54-9.24Q5.57-10.21 3.28-10.55L3.28-10.55 3.28-12.02Q4.65-11.8 5.62-11.8L5.62-11.8Q7.71-11.8 9.21-14.58L9.21-14.58Q14.14-23.55 19.09-36.38L19.09-36.38ZM84.83-13.39L84.83-13.39 102.53-13.39 104.54-15.56Q107.6-13.25 107.6-12.47L107.6-12.47Q107.6-12.08 107.21-11.86L107.21-11.86 106.01-11.05 106.01 0.97 107.77 0.97 109.6-2.84Q111.02-0.75 111.83 1.36L111.83 1.36 111.24 2.39 76.04 2.39 75.29 0.97 81.1 0.97 81.1-14.86Q83.08-14.17 84.83-13.39ZM88.48-11.97L84.14-11.97 84.14 0.97 88.48 0.97 88.48-11.97ZM95.55-11.97L91.37-11.97 91.37 0.97 95.55 0.97 95.55-11.97ZM102.92-11.97L98.5-11.97 98.5 0.97 102.92 0.97 102.92-11.97ZM93.01-26L93.01-26Q91.15-22.74 87.45-20.57L87.45-20.57 86.53-21.54Q91.15-25.58 91.82-31.81L91.82-31.81Q96.22-31.2 96.22-30.34L96.22-30.34Q96.22-29.78 94.46-29.36L94.46-29.36Q93.99-27.86 93.65-27.19L93.65-27.19Q99.42-25.58 99.42-23.07L99.42-23.07Q99.42-21.43 97.94-21.43L97.94-21.43Q96.99-21.43 96.58-22.29L96.58-22.29Q95.44-24.44 93.01-26ZM85.86-34.15L85.86-34.15 100.45-34.15 102.37-36.32Q105.57-33.82 105.57-33.12L105.57-33.12Q105.57-32.79 105.07-32.45L105.07-32.45 103.87-31.65 103.87-16.37 100.84-16.37 100.84-18.48 85.75-18.48 85.75-16.2 82.72-16.2 82.72-35.51Q84.53-34.87 85.86-34.15ZM100.84-32.73L85.75-32.73 85.75-19.9 100.84-19.9 100.84-32.73ZM64.99-18.26L64.99-18.26Q70.78-24.6 75.26-32.4L75.26-32.4Q79.38-30.59 79.38-29.47L79.38-29.47Q79.38-28.69 76.98-28.69L76.98-28.69Q72.25-22.77 67.1-18.31L67.1-18.31Q72.47-18.65 75.15-18.93L75.15-18.93Q74.42-20.4 73.09-22.13L73.09-22.13 74.01-22.93Q79.6-19.15 79.6-15.59L79.6-15.59Q79.6-13.53 77.71-13.53L77.71-13.53Q76.4-13.53 76.23-15.17L76.23-15.17Q76.15-16.42 75.73-17.51L75.73-17.51Q73.2-16.98 71.56-16.7L71.56-16.7 71.56 4.09 68.41 4.09 68.41-16.2Q65.38-15.67 62.37-15.34L62.37-15.34Q61.79-13.58 61.17-13.58L61.17-13.58Q60.28-13.58 59.34-18.09L59.34-18.09Q62.26-18.09 64.99-18.26ZM93.01-36.07L93.01-40.36 87.31-40.36 86.75-41.78 93.01-41.78 93.01-46.95Q98.22-46.95 98.22-45.81L98.22-45.81Q98.22-45.17 96.22-44.39L96.22-44.39 96.22-41.78 104.26-41.78 106.99-45.25Q109.05-43.45 110.58-41.55L110.58-41.55 110.02-40.36 96.22-40.36 96.22-36.07 93.01-36.07ZM74.23-36.07L74.23-40.36 61.17-40.36 60.62-41.78 74.23-41.78 74.23-46.95Q79.82-46.95 79.82-45.76L79.82-45.76Q79.82-45 77.43-44.23L77.43-44.23 77.43-41.78 79.49-41.78 81.99-45.03Q84.16-43.11 85.58-41.55L85.58-41.55 85-40.36 77.43-40.36 77.43-36.07 74.23-36.07ZM65.43-29.31L65.43-29.31Q67.33-32.62 68.86-37.38L68.86-37.38Q73.25-35.93 73.25-34.98L73.25-34.98Q73.25-34.34 71.14-34.09L71.14-34.09Q69.25-31.42 66.41-28.44L66.41-28.44Q68.19-26.66 68.19-25.08L68.19-25.08Q68.19-23.02 66.49-23.02L66.49-23.02Q65.32-23.02 64.88-24.49L64.88-24.49Q63.93-27.67 60.42-30.84L60.42-30.84 61.23-31.76Q63.68-30.7 65.43-29.31ZM60.37 1.84L60.37 1.84 59.23 1.09Q61.87-4.56 62.82-12.41L62.82-12.41Q67.44-11.41 67.44-10.38L67.44-10.38Q67.44-9.77 65.49-9.35L65.49-9.35Q64.01-3.2 60.37 1.84ZM76.9-1.75L76.9-1.75Q75.4-1.75 75.4-4.09L75.4-4.09Q75.4-7.82 73.25-12.94L73.25-12.94 74.34-13.44Q78.76-8.49 78.76-4.37L78.76-4.37Q78.76-1.75 76.9-1.75Z" transform="translate(-2.950000047683716, 47.2599983215332)"></path></g>       <g data-gra="path-name-1" transform="translate(0,54.349998474121094)"><g transform="scale(1.00304)"><path d="M23.38-26.44L23.38-26.44 31.42-26.44 33.29-28.69Q36.4-26.22 36.4-25.52L36.4-25.52Q36.4-25.27 36.07-25.02L36.07-25.02 34.76-24.1 34.76-14.75 31.81-14.75 31.81-16.64 23.16-16.64 23.16-14.47 20.01-14.47 20.01-28.05Q21.4-27.53 23.38-26.44ZM31.81-25.02L23.16-25.02 23.16-18.06 31.81-18.06 31.81-25.02ZM8.71 4.09L8.71-21.54Q6.37-13.53 2.67-7.18L2.67-7.18 1.36-8.04Q6.57-18.54 8.54-32.4L8.54-32.4 8.66-33.01 2.67-33.01 2.23-34.43 8.71-34.43 8.71-47.04Q14.31-46.84 14.31-45.48L14.31-45.48Q14.31-44.73 11.8-43.95L11.8-43.95 11.8-34.43 13.64-34.43 15.92-37.63 16.37-37.1Q18.06-35.4 18.93-33.98L18.93-33.98 18.31-33.01 11.8-33.01 11.8-26.91 12.08-26.69Q18.29-21.99 18.29-18.15L18.29-18.15Q18.29-16.03 16.34-16.03L16.34-16.03Q15.31-16.03 15.06-17.45L15.06-17.45Q14.28-21.18 11.8-24.85L11.8-24.85 11.8 4.09 8.71 4.09ZM54.72-30.5L49.23-30.5 49.23-0.5Q49.23 2.5 46.2 3.37L46.2 3.37Q44.98 3.65 44.28 3.65L44.28 3.65Q44.2 2.06 42.44 1.31L42.44 1.31Q41.08 0.75 37.71 0.33L37.71 0.33 37.71-1.14Q40.83-0.81 43.53-0.81L43.53-0.81Q45.2-0.81 45.64-1.14L45.64-1.14Q46.03-1.53 46.03-2.56L46.03-2.56 46.03-30.5 38.74-30.5 38.05-31.92 45.87-31.92 45.87-46.17Q51.29-45.92 51.29-44.59L51.29-44.59Q51.29-43.84 49.07-42.97L49.07-42.97 49.07-31.92 50.65-31.92 52.66-35.74Q54.22-33.65 55.22-31.7L55.22-31.7 54.72-30.5ZM38.55-38.38L29.08-38.38 29.08-31.87 31.98-31.87 34.21-34.96Q34.57-34.62 34.68-34.54L34.68-34.54Q35.96-33.26 37.41-31.48L37.41-31.48 36.85-30.45 19.26-30.45 18.7-31.87 25.94-31.87 25.94-38.38 17.84-38.38 17.34-39.8 25.94-39.8 25.94-47.15Q31.31-46.9 31.31-45.73L31.31-45.73Q31.31-44.95 29.08-44.2L29.08-44.2 29.08-39.8 33.43-39.8 35.82-42.94Q37.35-41.72 39.1-39.52L39.1-39.52 38.55-38.38ZM28.17-4.17L28.17-4.17Q29.92-9.21 30.67-14.19L30.67-14.19Q35.4-12.91 35.4-11.8L35.4-11.8Q35.4-11.08 33.34-10.83L33.34-10.83Q32.26-8.1 30.09-4.62L30.09-4.62Q35.35-6.04 38.52-7.13L38.52-7.13 38.88-5.76Q29.59-1.7 19.84 0.86L19.84 0.86Q19.57 3.09 18.98 3.09L18.98 3.09Q17.9 3.09 16.17-1.75L16.17-1.75Q22.93-2.87 28.17-4.17ZM19.65-12.89L20.51-13.75Q25.69-10.08 25.69-6.21L25.69-6.21Q25.69-3.92 23.77-3.92L23.77-3.92Q22.35-3.92 22.27-6.04L22.27-6.04Q22.18-9.41 19.65-12.89L19.65-12.89ZM37.74-26.33L38.88-26.86Q43.67-19.93 43.67-14.31L43.67-14.31Q43.67-11.22 41.66-11.22L41.66-11.22Q40.19-11.22 40.19-14L40.19-14Q40.19-20.23 37.74-26.33L37.74-26.33ZM80.88-43.14L80.88-43.14 104.09-43.14 106.37-45.87Q109.91-43.03 109.91-42.33L109.91-42.33Q109.91-42.08 109.44-41.72L109.44-41.72 107.96-40.69 107.96-1.78Q107.96 3.26 102.03 3.34L102.03 3.34Q101.95 1.7 100.25 1L100.25 1Q98.69 0.36 94.43-0.31L94.43-0.31 94.43-1.89Q98.97-1.39 102.48-1.39L102.48-1.39Q104.65-1.39 104.65-3.2L104.65-3.2 104.65-41.72 80.13-41.72 80.13 4.09 76.76 4.09 76.76-45.03Q78.65-44.34 80.88-43.14ZM88.53-25.61L88.53-25.61 95.52-25.61 97.5-28Q100.81-25.38 100.81-24.69L100.81-24.69Q100.81-24.3 100.25-23.91L100.25-23.91 99.05-23.1 99.05-7.24 95.96-7.24 95.96-10.99 87.84-10.99 87.84-6.9 84.75-6.9 84.75-27.19Q85.28-27.02 86.11-26.69L86.11-26.69Q86.31-26.61 86.81-26.38L86.81-26.38Q87.87-25.91 88.53-25.61ZM95.96-24.19L87.84-24.19 87.84-12.41 95.96-12.41 95.96-24.19ZM59.67-32.79L60.37-33.73Q67.55-31.34 67.55-27.41L67.55-27.41Q67.55-25.19 65.71-25.19L65.71-25.19Q64.29-25.19 63.79-27.25L63.79-27.25Q63.07-30.31 59.67-32.79L59.67-32.79ZM63.21-44.98L63.9-46.01Q71.64-43.61 71.64-39.8L71.64-39.8Q71.64-37.63 69.58-37.63L69.58-37.63Q68.47-37.63 68.05-38.88L68.05-38.88Q66.91-42.36 63.21-44.98L63.21-44.98ZM82.08-34.09L95.74-34.09 98.5-37.46Q100.78-35.51 102.09-33.82L102.09-33.82 101.45-32.67 82.63-32.67 82.08-34.09ZM73.92-37.46L75.34-36.49 68.1-11.05 67.94-10.6Q67.13-8.38 67.13-7.13L67.13-7.13Q67.13-6.57 67.41-5.12L67.41-5.12Q68.33-1.73 68.33 0.17L68.33 0.17Q68.33 3.98 65.66 3.98L65.66 3.98Q63.71 3.98 63.71 2.03L63.71 2.03Q63.71 1.61 64.13-1.67L64.13-1.67Q64.29-3.15 64.29-4.68L64.29-4.68Q64.29-9.85 60.01-10.55L60.01-10.55 60.01-12.02Q61.09-11.8 62.01-11.8L62.01-11.8Q64.63-11.8 65.82-14.53L65.82-14.53Q69.86-23.96 73.92-37.46L73.92-37.46Z" transform="translate(-1.3600000143051147, 47.150001525878906)"></path></g></g></g></g> <g data-gra="path-slogan" fill-rule="" class="tp-slogan" transform="translate(-5.229999542236328,110.74576568603516)" fill="white"><rect width="0"></rect> <rect x="122.34000396728516" width="0"></rect> <g transform="translate(0,0)"><g transform="scale(1)"><path d="M0.89-8.58L2.06-8.58L2.06-1.03L6.42-1.03L6.42 0L0.89 0L0.89-8.58ZM13.22-3.19L13.22-8.58L14.39-8.58L14.39-3.05Q14.25 0.05 10.88 0.14L10.88 0.14Q7.73 0.05 7.59-2.86L7.59-2.86L7.59-8.58L8.77-8.58L8.77-3.19Q8.81-0.84 10.92-0.80L10.92-0.80Q13.22-0.84 13.22-3.19L13.22-3.19ZM22.97-4.27L22.97-4.27Q22.78-7.64 19.97-7.83L19.97-7.83Q17.11-7.69 16.97-4.27L16.97-4.27Q17.11-0.94 19.97-0.80L19.97-0.80Q22.78-0.98 22.97-4.27ZM24.14-4.27L24.14-4.27Q23.86 0 19.97 0.14L19.97 0.14Q16.03 0 15.75-4.27L15.75-4.27Q15.98-8.72 19.97-8.81L19.97-8.81Q23.86-8.67 24.14-4.27ZM32.44-8.58L29.20-3.47L29.20 0L28.03 0L28.03-3.47L24.80-8.58L26.16-8.58L28.59-4.45L31.08-8.58L32.44-8.58ZM39.14-3.19L39.14-8.58L40.31-8.58L40.31-3.05Q40.17 0.05 36.80 0.14L36.80 0.14Q33.66 0.05 33.52-2.86L33.52-2.86L33.52-8.58L34.69-8.58L34.69-3.19Q34.73-0.84 36.84-0.80L36.84-0.80Q39.14-0.84 39.14-3.19L39.14-3.19ZM43.50-8.58L47.81-1.64L47.81-8.58L48.94-8.58L48.94 0L47.63 0L43.27-6.94L43.22-6.94L43.22 0L42.09 0L42.09-8.58L43.50-8.58ZM56.25-7.59L53.34-7.59L53.34-8.58L60.28-8.58L60.28-7.59L57.38-7.59L57.38 0L56.25 0L56.25-7.59ZM65.44-3.70L62.63-3.70L62.63 0L61.45 0L61.45-8.58L65.44-8.58Q68.30-8.58 68.30-6.28L68.30-6.28Q68.30-4.88 67.08-4.22L67.08-4.22Q68.11-3.94 68.11-2.58L68.11-2.58L68.20-1.03Q68.16-0.38 68.63-0.19L68.63-0.19L68.63 0L67.17 0Q67.03-0.61 66.98-2.16L66.98-2.16Q67.03-3.70 65.44-3.70L65.44-3.70ZM65.53-7.64L62.63-7.64L62.63-4.69L65.34-4.69Q67.08-4.69 67.08-6.19L67.08-6.19Q67.08-7.64 65.53-7.64L65.53-7.64ZM71.25-1.03L76.41-1.03L76.41 0L70.08 0L70.08-8.58L76.31-8.58L76.31-7.59L71.25-7.59L71.25-4.92L75.94-4.92L75.94-3.89L71.25-3.89L71.25-1.03ZM79.22-1.03L84.38-1.03L84.38 0L78.05 0L78.05-8.58L84.28-8.58L84.28-7.59L79.22-7.59L79.22-4.92L83.91-4.92L83.91-3.89L79.22-3.89L79.22-1.03ZM96.38-6.05L96.38-6.05L95.25-6.05Q94.83-7.78 92.86-7.83L92.86-7.83Q90.14-7.69 90.05-4.36L90.05-4.36Q90.05-0.80 92.91-0.80L92.91-0.80Q94.88-0.84 95.34-3.19L95.34-3.19L96.47-3.19Q95.95 0.05 92.67 0.14L92.67 0.14Q88.92 0 88.83-4.31L88.83-4.31Q89.02-8.63 92.86-8.81L92.86-8.81Q95.91-8.72 96.38-6.05ZM103.50 0L102.66-2.48L99.19-2.48L98.30 0L97.13 0L100.36-8.58L101.67-8.58L104.77 0L103.50 0ZM100.92-7.31L99.56-3.52L102.23-3.52L100.97-7.31L100.92-7.31ZM106.45-8.58L108.89-1.27L111.38-8.58L112.69-8.58L109.55 0L108.28 0L105.14-8.58L106.45-8.58ZM115.08-1.03L120.23-1.03L120.23 0L113.91 0L113.91-8.58L120.14-8.58L120.14-7.59L115.08-7.59L115.08-4.92L119.77-4.92L119.77-3.89L115.08-3.89L115.08-1.03Z" transform="translate(-0.890625, 8.8125)"></path></g></g></g></g></mask><defs v-gra="od"></defs></svg>